<svg width="29" xmlns="http://www.w3.org/2000/svg" height="16" fill="none"><g style="fill: rgb(0, 0, 0);"><path d="M2.893,15.475C2.085,15.165,1.379,14.669,0.842,14.034C0.349,13.446,0.056,12.737,0.000,11.996L3.850,11.996C3.869,12.191,3.935,12.380,4.041,12.549C4.147,12.719,4.292,12.866,4.465,12.979C4.855,13.240,5.328,13.375,5.810,13.362C6.207,13.384,6.601,13.293,6.938,13.100C7.060,13.028,7.161,12.928,7.230,12.811C7.300,12.693,7.336,12.562,7.336,12.428C7.337,12.266,7.282,12.107,7.181,11.974C7.079,11.840,6.934,11.739,6.767,11.685C6.169,11.462,5.552,11.283,4.922,11.152C4.148,10.994,3.387,10.788,2.644,10.536C2.035,10.320,1.495,9.968,1.072,9.512C0.630,9.044,0.410,8.414,0.410,7.619C0.404,6.967,0.614,6.329,1.013,5.789C1.459,5.208,2.075,4.755,2.790,4.483C3.674,4.145,4.626,3.981,5.583,4.002C7.178,4.002,8.435,4.365,9.353,5.090C10.276,5.822,10.846,6.859,10.937,7.975L7.336,7.975C7.314,7.788,7.251,7.606,7.151,7.440C7.051,7.275,6.917,7.129,6.755,7.012C6.383,6.763,5.929,6.639,5.468,6.658C5.101,6.637,4.735,6.721,4.421,6.898C4.305,6.971,4.210,7.069,4.146,7.184C4.082,7.299,4.051,7.427,4.055,7.557C4.056,7.721,4.113,7.882,4.217,8.017C4.320,8.151,4.467,8.253,4.636,8.309C5.220,8.532,5.827,8.700,6.447,8.811C7.228,8.988,7.997,9.208,8.750,9.469C9.356,9.695,9.892,10.054,10.310,10.515C10.781,11.063,11.025,11.747,10.998,12.444C11.007,13.100,10.787,13.741,10.370,14.274C9.910,14.840,9.287,15.277,8.571,15.537C7.707,15.859,6.781,16.016,5.849,15.999C4.835,16.014,3.828,15.836,2.893,15.475ZZ" style="fill: rgb(255, 255, 255); fill-opacity: 1;" class="fills"/><path d="M24.821,15.755L23.455,14.368C22.096,15.456,20.471,16.000,18.582,15.998C17.567,16.022,16.558,15.823,15.621,15.413C14.834,15.072,14.158,14.499,13.677,13.762C13.215,13.020,12.980,12.149,13.001,11.264C12.991,10.329,13.251,9.413,13.746,8.635C14.311,7.791,15.084,7.125,15.983,6.708C15.656,6.304,15.393,5.847,15.207,5.354C15.051,4.900,14.975,4.421,14.982,3.939C14.975,3.230,15.165,2.534,15.529,1.937C15.917,1.315,16.468,0.824,17.115,0.521C17.893,0.157,18.739,-0.020,19.591,0.003C20.440,-0.025,21.284,0.165,22.048,0.554C22.679,0.880,23.205,1.392,23.561,2.029C23.897,2.643,24.058,3.347,24.024,4.055L20.648,4.055C20.665,3.890,20.649,3.723,20.600,3.565C20.551,3.408,20.471,3.262,20.365,3.139C20.256,3.028,20.126,2.942,19.983,2.886C19.841,2.831,19.689,2.807,19.537,2.816C19.229,2.806,18.929,2.916,18.695,3.125C18.586,3.223,18.500,3.345,18.442,3.482C18.384,3.619,18.356,3.768,18.360,3.918C18.370,4.261,18.468,4.595,18.643,4.885C18.898,5.314,19.200,5.709,19.543,6.064L23.144,9.741C23.178,9.651,23.216,9.563,23.259,9.477C23.308,9.373,23.360,9.255,23.417,9.123L24.168,7.736L27.769,7.736L26.761,9.651C26.388,10.507,25.953,11.332,25.460,12.118L29.000,15.755L24.821,15.755ZZM21.249,12.123L17.973,8.805C16.964,9.347,16.460,10.081,16.460,11.005C16.457,11.272,16.511,11.536,16.618,11.778C16.725,12.021,16.882,12.234,17.079,12.404C17.552,12.798,18.146,12.998,18.749,12.965C19.647,12.979,20.525,12.685,21.249,12.123ZL21.249,12.123ZZ" style="fill: rgb(255, 255, 255); fill-opacity: 1;" class="fills"/></g></svg>